<svg class="svg-icon" style="width:1em;height:1em;vertical-align:middle;fill:currentColor;overflow:hidden" viewBox="0 0 1024 1024" xmlns="http://www.w3.org/2000/svg"><path d="M384 168.96c-65.024 21.504-122.88 71.68-122.88 71.68l97.28 40.96 128-61.44 20.48-61.44s-65.536-8.704-122.88 10.24z" fill="#9C9C9C"/><path d="M476.16 460.8 358.4 358.4l-163.84-5.12 15.36 204.8 87.04 51.2 66.56 215.04L588.8 583.68l5.12-122.88z" fill="#D1D1D1"/><path d="m803.84 296.96-143.36-97.28-51.2 51.2 20.48 87.04 97.28 35.84 56.32 56.32 61.44 46.08-46.08 56.32-87.04 261.12 138.24-138.24 20.48-184.32z" fill="#9C9C9C"/><path d="M509.44 174.08c184.832 0 335.36 150.528 335.36 335.36S694.272 844.8 509.44 844.8 174.08 694.272 174.08 509.44s150.528-335.36 335.36-335.36m0-61.44c-219.136 0-396.8 177.664-396.8 396.8s177.664 396.8 396.8 396.8 396.8-177.664 396.8-396.8-177.664-396.8-396.8-396.8z" fill="#9C9C9C"/></svg>