<svg width="1000" xmlns="http://www.w3.org/2000/svg" height="1000"><path d="M533.504 529.92c31.744 33.792 62.464 67.584 94.208 99.328 11.776-5.632 23.552-11.264 35.84-16.384-38.912-29.696-74.752-64.512-111.104-99.84-6.656 5.632-12.8 11.264-18.944 16.896zm-51.712 49.664C380.416 678.4 284.672 773.12 143.36 773.12v71.68c200.704 0 294.4-101.376 422.912-181.248-27.648-28.16-55.296-56.832-84.48-83.968zm289.28.512c38.912-7.68 81.408-11.776 130.048-11.776V358.4c-119.808 0-210.944 44.544-289.28 104.448 50.176 47.616 101.376 90.624 159.232 117.248zM143.36 604.16v87.04c142.848 0 231.424-61.44 316.416-131.584-24.064-20.992-49.152-40.448-76.288-57.344C313.856 560.64 239.104 604.16 143.36 604.16zM516.608 512c6.144-5.12 12.288-10.24 18.944-15.36-23.552-22.528-48.128-45.568-73.728-66.56-5.12 4.608-10.24 9.728-14.848 14.336C471.04 465.92 494.08 488.96 516.608 512z" fill="#9C9C9C"/><path d="M519.68 374.272c26.624 25.088 52.736 51.2 78.336 75.776C675.328 398.336 767.488 358.4 901.12 358.4V189.44c-169.472 0-281.088 89.088-381.44 184.832z" fill="#9C9C9C"/><path d="M143.36 194.56v117.248c142.848 0 238.08 52.224 318.464 118.272 18.944-18.432 38.4-37.376 57.856-55.808-99.328-93.696-209.92-179.712-376.32-179.712zm757.76 501.76v-87.04c-47.616 0-90.624-10.752-130.048-29.184-39.936 7.68-75.264 18.944-108.032 32.256 64.512 49.152 138.24 83.968 238.08 83.968zM551.936 513.024c18.944-17.408 38.912-34.304 59.392-49.664-4.608-4.096-9.216-8.704-13.824-12.8-22.016 14.848-42.496 30.72-62.464 46.592 6.144 5.12 11.776 10.24 16.896 15.872z" fill="#9C9C9C"/><path d="M551.936 513.024c36.352 35.328 72.192 70.144 111.104 99.84 32.256-13.312 68.096-24.576 108.032-32.256-57.856-26.624-109.056-69.632-159.744-117.248-19.968 15.36-39.936 32.256-59.392 49.664zm46.08-62.976c-26.112-25.088-51.712-50.688-78.336-75.776-19.456 18.432-38.912 37.376-57.856 55.808 25.6 20.992 50.176 44.032 73.728 66.56 19.968-15.872 40.448-31.744 62.464-46.592z" fill="#7F7C7C"/><path d="M901.12 844.8v-71.68c-110.592 0-193.536-64-273.408-144.384-21.504 10.752-41.984 22.528-61.952 34.816C657.408 757.248 748.032 844.8 901.12 844.8zM516.608 512l-56.832 47.616c7.68 6.656 14.848 13.312 22.016 19.968 16.896-16.384 34.304-33.28 51.712-49.664-5.632-6.144-11.264-11.776-16.896-17.92zM143.36 317.44v117.248c99.328 0 175.616 27.136 240.128 67.072 21.504-17.92 42.496-37.376 63.488-57.344-81.92-71.68-176.64-126.976-303.616-126.976z" fill="#D1D1D1"/><path d="M481.792 579.584c29.184 27.136 56.832 55.808 83.968 83.968 19.456-12.288 39.936-24.064 61.952-34.816-31.232-31.744-61.952-65.536-94.208-99.328l-51.712 50.176zm-34.816-135.168c-20.992 19.968-41.984 39.424-63.488 57.344 27.648 16.896 52.736 36.352 76.288 57.344 18.944-15.36 37.888-31.744 56.832-47.616-22.528-22.528-45.568-45.568-69.632-67.072z" fill="#9C9C9C"/></svg>